<svg viewBox="0 0 841.89 595.28" xmlns="http://www.w3.org/2000/svg"><g fill="#41276d"><path d="m498.86 253.57v100.86h-29.25v-14.73a32.35 32.35 0 0 1 -12.53 12.14 36.38 36.38 0 0 1 -17.5 4.18q-18.9 0-28.25-10.55t-9.33-31.83v-60.07h30v60.67q0 18.3 15.71 18.3 9.34 0 15.12-6.36t5.77-16.71v-55.9zm114.7-46v146.86h-29.64v-14.92a31.82 31.82 0 0 1 -12.92 12.13 40.09 40.09 0 0 1 -18.9 4.38 41 41 0 0 1 -23.1-6.67 44.35 44.35 0 0 1 -15.81-18.7q-5.67-12-5.67-27.55t5.67-27.35a43.46 43.46 0 0 1 15.71-18.3 41.89 41.89 0 0 1 23.19-6.45 40 40 0 0 1 18.5 4.28 31.55 31.55 0 0 1 12.93 11.83v-59.54zm-35.56 117.91q6-7.65 6-22 0-14.13-6.07-21.78t-17-7.66q-11.15 0-17.31 7.56t-6.16 21.48q0 14.32 6.16 22.18t17.31 7.86q11.07.02 17.07-7.64zm150.26-71.91v100.86h-29.65v-14.92a31.76 31.76 0 0 1 -12.93 12.13 40.08 40.08 0 0 1 -18.89 4.36 41.31 41.31 0 0 1 -38.89-24.57q-5.67-11.83-5.67-27.35t5.67-27.66a44.24 44.24 0 0 1 15.81-18.79 41 41 0 0 1 23.08-6.63 38.69 38.69 0 0 1 18.89 4.58 33.11 33.11 0 0 1 12.93 12.33v-14.34zm-35.61 72q6-7.56 6-21.88t-6-22q-6-7.67-17.11-7.66t-17.31 7.97q-6.16 8-6.17 22.09t6.07 21.58q6.07 7.45 17.41 7.46 11.13.01 17.11-7.55zm-296.76 30.28h-37.27l-40.1-45.73v45.73h-30.42v-148.28h30.42v90.05l38.28-43.71h36.47l-43.32 49zm-191.13.05-58.38-67.2 31.88 67.2h-22.1l-32.52-68.51 13.52 68.51h-13.58l-13.53-68.61v68.61h-5.33v-148.33h5.33v74l13.72-74h13.54l-13.78 74.32 33.15-74.32h21.86l-33.02 74.05 59.96-74.05h34.26l-62.02 76.61 62.31 71.72z"/><circle cx="753.45" cy="337.8" r="16.47"/></g></svg>